<svg width="40" height="40" viewBox="0 0 40 40" fill="none" xmlns="http://www.w3.org/2000/svg">
<path d="M40 20C40 25.5228 37.7614 30.5228 34.1421 34.1421C30.5228 37.7614 25.5228 40 20 40C14.4772 40 9.47715 37.7614 5.85786 34.1421C2.23858 30.5228 0 25.5228 0 20C0 14.4771 2.23858 9.47712 5.85786 5.85783C9.47715 2.23855 14.4772 -3.05176e-05 20 -3.05176e-05C25.5228 -3.05176e-05 30.5228 2.23855 34.1421 5.85783C37.7614 9.47712 40 14.4771 40 20Z" fill="#4D5AE5"/>
<g clip-path="url(#clip0_865717_1183)">
<path d="M27.9843 16.704C27.9468 15.8538 27.8093 15.2693 27.6124 14.7629C27.4092 14.2253 27.0967 13.744 26.6872 13.3439C26.2871 12.9376 25.8026 12.6219 25.2713 12.4219C24.7619 12.2249 24.1805 12.0874 23.3303 12.05C22.4738 12.0093 22.2019 11.9999 20.0296 11.9999C17.8573 11.9999 17.5854 12.0093 16.7321 12.0468C15.882 12.0843 15.2975 12.2219 14.7912 12.4187C14.2535 12.6219 13.7722 12.9344 13.3721 13.3439C12.9658 13.744 12.6501 14.2285 12.45 14.7598C12.2531 15.2693 12.1156 15.8506 12.0781 16.7008C12.0375 17.5573 12.0281 17.8292 12.0281 20.0015C12.0281 22.1738 12.0375 22.4457 12.075 23.299C12.1124 24.1491 12.25 24.7336 12.447 25.24C12.6501 25.7776 12.9658 26.2589 13.3721 26.659C13.7722 27.0654 14.2567 27.3811 14.788 27.5811C15.2975 27.778 15.8788 27.9155 16.7291 27.953C17.5823 27.9906 17.8543 27.9999 20.0266 27.9999C22.1989 27.9999 22.4708 27.9906 23.3241 27.953C24.1742 27.9155 24.7587 27.778 25.265 27.5811C26.3403 27.1653 27.1904 26.3152 27.6062 25.24C27.803 24.7305 27.9406 24.1491 27.9781 23.299C28.0156 22.4457 28.025 22.1738 28.025 20.0015C28.025 17.8292 28.0218 17.5573 27.9843 16.704ZM26.5435 23.2365C26.509 24.0179 26.3778 24.4398 26.2684 24.7211C25.9995 25.4182 25.4463 25.9714 24.7493 26.2402C24.468 26.3496 24.043 26.4809 23.2646 26.5152C22.4207 26.5528 22.1676 26.5621 20.0328 26.5621C17.898 26.5621 17.6417 26.5528 16.8009 26.5152C16.0195 26.4809 15.5975 26.3496 15.3162 26.2402C14.9693 26.112 14.6536 25.9089 14.3973 25.6432C14.1316 25.3837 13.9285 25.0712 13.8003 24.7243C13.6909 24.443 13.5596 24.0179 13.5253 23.2397C13.4877 22.3957 13.4784 22.1425 13.4784 20.0077C13.4784 17.8729 13.4877 17.6166 13.5253 16.7759C13.5596 15.9945 13.6909 15.5725 13.8003 15.2912C13.9285 14.9442 14.1316 14.6286 14.4005 14.3722C14.6598 14.1065 14.9724 13.9034 15.3194 13.7753C15.6007 13.6659 16.0258 13.5346 16.804 13.5002C17.6479 13.4627 17.9012 13.4533 20.0359 13.4533C22.1738 13.4533 22.4269 13.4627 23.2678 13.5002C24.0492 13.5346 24.4712 13.6659 24.7525 13.7753C25.0993 13.9034 25.4151 14.1065 25.6714 14.3722C25.937 14.6316 26.1402 14.9442 26.2684 15.2912C26.3778 15.5725 26.509 15.9975 26.5435 16.7759C26.581 17.6198 26.5904 17.8729 26.5904 20.0077C26.5904 22.1425 26.581 22.3926 26.5435 23.2365Z" fill="#F4F4FD"/>
<path d="M20.0297 15.8913C17.7606 15.8913 15.9196 17.7322 15.9196 20.0014C15.9196 22.2707 17.7606 24.1116 20.0297 24.1116C22.299 24.1116 24.1399 22.2707 24.1399 20.0014C24.1399 17.7322 22.299 15.8913 20.0297 15.8913ZM20.0297 22.6676C18.5576 22.6676 17.3636 21.4737 17.3636 20.0014C17.3636 18.5292 18.5576 17.3353 20.0297 17.3353C21.5019 17.3353 22.6959 18.5292 22.6959 20.0014C22.6959 21.4737 21.5019 22.6676 20.0297 22.6676V22.6676Z" fill="#F4F4FD"/>
<path d="M25.262 15.7288C25.262 16.2587 24.8323 16.6883 24.3023 16.6883C23.7724 16.6883 23.3428 16.2587 23.3428 15.7288C23.3428 15.1988 23.7724 14.7693 24.3023 14.7693C24.8323 14.7693 25.262 15.1988 25.262 15.7288V15.7288Z" fill="#F4F4FD"/>
</g>
<defs>
<clipPath id="clip0_865717_1183">
<rect width="16" height="16" fill="white" transform="translate(12 11.9999)"/>
</clipPath>
</defs>
</svg>
