<svg width="40" height="40" viewBox="0 0 40 40" fill="none" xmlns="http://www.w3.org/2000/svg">
<path d="M40 20C40 25.5228 37.7614 30.5228 34.1421 34.1421C30.5228 37.7614 25.5228 40 20 40C14.4772 40 9.47715 37.7614 5.85786 34.1421C2.23858 30.5228 0 25.5228 0 20C0 14.4771 2.23858 9.47712 5.85786 5.85783C9.47715 2.23855 14.4772 -3.05176e-05 20 -3.05176e-05C25.5228 -3.05176e-05 30.5228 2.23855 34.1421 5.85783C37.7614 9.47712 40 14.4771 40 20Z" fill="#4D5AE5"/>
<g clip-path="url(#clip0_865717_1195)">
<path d="M22.6646 14.6566H24.1253V12.1126C23.8733 12.0779 23.0066 11.9999 21.9973 11.9999C19.8913 11.9999 18.4486 13.3246 18.4486 15.7592V17.9999H16.1246V20.8439H18.4486V27.9999H21.298V20.8446H23.528L23.882 18.0006H21.2973V16.0412C21.298 15.2192 21.5193 14.6566 22.6646 14.6566V14.6566Z" fill="#F4F4FD"/>
</g>
<defs>
<clipPath id="clip0_865717_1195">
<rect width="16" height="16" fill="white" transform="translate(12 11.9999)"/>
</clipPath>
</defs>
</svg>
